#!OML:ASF H:\Terrain\Patient Classification 1\Terrain2\Thursday\justin.ASF
:FULLY-SPECIFIED
:DEGREES
2965
root -0.913421 17.1984 22.1748 -95.0349 76.1973 -94.7451
lowerback 8.85899 1.97469 11.1664
upperback 3.51947 3.90384 4.46989
thorax -0.857823 2.12328 -1.92674
lowerneck -12.3165 -1.76174 -8.30943
upperneck 38.1235 1.35538 1.29141
head 15.4709 0.177792 2.42607
rclavicle 3.00662e-014 -1.47101e-014
rhumerus -30.3313 -3.87523 -82.3789
rradius 34.6588
rwrist -12.1391
rhand -22.4053 13.9727
rfingers 7.12502
rthumb 4.01742 -15.9692
lclavicle 3.00662e-014 -1.47101e-014
lhumerus -34.3559 5.62115 82.6135
lradius 37.9058
lwrist 7.47641
lhand -20.798 20.1332
lfingers 7.12502
lthumb 5.56941 50.04
rfemur 0.0303712 -9.05403 36.2846
rtibia 28.0451
rfoot -25.2 -0.0100332
rtoes 15.3403
lfemur -30.973 1.84353 -3.86229
ltibia 68.6171
lfoot -7.68938 -14.4559
ltoes 5.47992
2966
root -0.867025 17.2045 22.1822 -94.2204 76.2706 -93.9609
lowerback 8.86856 2.09583 11.2145
upperback 3.54843 4.06314 4.40837
thorax -0.805926 2.20556 -2.02785
lowerneck -12.2874 -1.74942 -8.28968
upperneck 38.0296 1.33039 1.35128
head 15.4161 0.179673 2.44068
rclavicle -8.20732e-014 -6.99722e-014
rhumerus -30.0025 -3.92072 -82.4068
rradius 34.4727
rwrist -12.2373
rhand -22.7408 14.0491
rfingers 7.12502
rthumb 3.69342 -15.8986
lclavicle -8.20732e-014 -6.99722e-014
lhumerus -34.4464 5.57507 82.6266
lradius 37.8696
lwrist 6.91002
lhand -20.1806 20.3504
lfingers 7.12502
lthumb 6.1655 50.2406
rfemur 0.381651 -8.86434 36.2826
rtibia 27.6195
rfoot -25.0491 -0.516725
rtoes 14.5914
lfemur -31.7597 2.08192 -3.89391
ltibia 68.9783
lfoot -8.16006 -13.8983
ltoes 5.47281
2967
root -0.813807 17.2134 22.1853 -93.8234 76.5246 -93.6072
lowerback 8.87605 2.13243 11.0769
upperback 3.54094 4.09409 4.3226
thorax -0.817958 2.2171 -2.04569
lowerneck -12.312 -1.69377 -8.37991
upperneck 38.1107 1.4136 1.46614
head 15.455 0.217428 2.52245
rclavicle 4.48756e-014 5.54609e-014
rhumerus -29.7755 -3.69398 -82.4921
rradius 34.3646
rwrist -12.5178
rhand -22.7882 14.0432
rfingers 7.12502
rthumb 3.64767 -15.9054
lclavicle 4.48756e-014 5.54609e-014
lhumerus -34.7132 5.85084 82.5652
lradius 37.8451
lwrist 6.51332
lhand -20.0877 20.218
lfingers 7.12502
lthumb 6.25511 50.1056
rfemur 0.763051 -8.67971 36.0151
rtibia 27.2288
rfoot -24.9884 -0.358488
rtoes 15.6152
lfemur -32.4607 2.45375 -4.26771
ltibia 69.0416
lfoot -9.2246 -13.0581
ltoes 3.18766
2968
root -0.760837 17.2121 22.1901 -93.7545 76.6249 -93.4821
lowerback 8.88343 2.13078 11.0203
upperback 3.63725 4.08268 4.33707
thorax -0.727206 2.21958 -1.99577
lowerneck -12.3055 -1.61117 -8.3841
upperneck 38.0005 1.55849 1.37799
head 15.3909 0.267156 2.5045
rclavicle -2.06239e-014 -1.31198e-014
rhumerus -29.4308 -3.40952 -82.5302
rradius 34.2434
rwrist -12.6705
rhand -22.4756 14.1031
rfingers 7.12502
rthumb 3.94954 -15.84
lclavicle -2.06239e-014 -1.31198e-014
lhumerus -34.8397 6.03289 82.7021
lradius 37.6569
lwrist 6.394
lhand -20.2418 19.6347
lfingers 7.12502
lthumb 6.10637 49.5267
rfemur 1.20336 -8.54107 35.8991
rtibia 26.9434
rfoot -25.0233 -0.257049
rtoes 15.8365
lfemur -33.0952 2.62648 -4.51857
ltibia 68.8731
lfoot -10.2553 -12.003
ltoes 0.312197
2969
root -0.706174 17.2142 22.1943 -92.9456 76.8036 -92.6017
lowerback 8.93375 2.2942 10.9333
upperback 3.72233 4.28844 4.27158
thorax -0.64339 2.32751 -2.03112
lowerneck -12.2875 -1.62413 -8.20611
upperneck 37.9331 1.51991 1.27374
head 15.3563 0.264405 2.42028
rclavicle 1.73937e-015 -6.22196e-014
rhumerus -29.1722 -3.54245 -82.4768
rradius 34.0768
rwrist -12.4817
rhand -22.2971 14.2479
rfingers 7.12502
rthumb 4.12187 -15.6919
lclavicle 1.73937e-015 -6.22196e-014
lhumerus -34.919 5.76448 82.9167
lradius 37.4681
lwrist 6.16892
lhand -20.208 19.3913
lfingers 7.12502
lthumb 6.13904 49.2824
rfemur 1.61516 -8.3146 35.7183
rtibia 26.6918
rfoot -25.168 -0.481822
rtoes 14.2609
lfemur -33.5927 2.81999 -4.79706
ltibia 68.508
lfoot -11.1281 -11.0179
ltoes -1.01441
2970
root -0.646858 17.2271 22.1915 -92.3264 77.267 -92.1321
lowerback 8.86412 2.49956 10.6348
upperback 3.65705 4.51286 4.08008
thorax -0.656289 2.4289 -2.08295
lowerneck -12.2111 -1.72066 -8.09155
upperneck 37.9356 1.33137 1.29897
head 15.3495 0.208 2.3808
rclavicle 2.0276e-014 5.725e-014
rhumerus -29.139 -3.84376 -82.3715
rradius 34.0159
rwrist -12.4384
rhand -22.1901 14.2772
rfingers 7.12502
rthumb 4.22516 -15.6607
lclavicle 2.0276e-014 5.725e-014
lhumerus -35.1516 5.42094 83.0096
lradius 37.3093
lwrist 5.83692
lhand -19.9649 19.1984
lfingers 7.12502
lthumb 6.37366 49.0825
rfemur 1.84197 -8.30639 35.1819
rtibia 26.3791
rfoot -25.3109 -0.444011
rtoes 13.3402
lfemur -34.2543 3.05212 -5.38254
ltibia 67.9362
lfoot -11.5935 -10.5064
ltoes 0.0397986
2971
root -0.589868 17.2372 22.19 -92.0882 77.5959 -92.1072
lowerback 8.81016 2.57338 10.5315
upperback 3.54021 4.58498 3.85462
thorax -0.730092 2.45214 -2.26745
lowerneck -12.1434 -1.78563 -7.84005
upperneck 37.8833 1.21035 1.13663
head 15.3159 0.172365 2.24568
rclavicle 6.93758e-014 1.07344e-014
rhumerus -29.0773 -3.99605 -82.4846
rradius 33.9486
rwrist -12.3912
rhand -22.0988 14.1909
rfingers 7.12502
rthumb 4.31335 -15.7451
lclavicle 6.93758e-014 1.07344e-014
lhumerus -35.388 5.31323 82.8574
lradius 36.9838
lwrist 5.54367
lhand -19.6746 19.0442
lfingers 7.12502
lthumb 6.65393 48.9196
rfemur 2.0191 -8.18554 34.8482
rtibia 26.0271
rfoot -25.4048 -0.668027
rtoes 12.0959
lfemur -35.0394 3.25649 -5.80003
ltibia 67.1936
lfoot -11.5445 -10.1363
ltoes 2.45219
2972
root -0.531753 17.2402 22.1912 -91.6462 77.6829 -91.726
lowerback 8.89319 2.55015 10.6508
upperback 3.47806 4.57165 3.71513
thorax -0.820676 2.43853 -2.48374
lowerneck -12.1178 -1.7563 -7.62798
upperneck 37.8134 1.23999 0.974403
head 15.2743 0.19277 2.14119
rclavicle -5.14355e-014 -2.60408e-014
rhumerus -28.9637 -4.00442 -82.6975
rradius 33.8211
rwrist -11.8176
rhand -22.1576 14.0175
rfingers 7.12502
rthumb 4.25654 -15.9197
lclavicle -5.14355e-014 -2.60408e-014
lhumerus -35.6686 5.35568 82.6852
lradius 36.6418
lwrist 5.22772
lhand -19.1234 19.9042
lfingers 7.12502
lthumb 7.18605 49.7622
rfemur 2.35757 -7.89295 34.8202
rtibia 25.6649
rfoot -25.4215 -1.20254
rtoes 10.1751
lfemur -35.6318 3.47275 -5.9678
ltibia 66.3382
lfoot -11.6745 -9.62489
ltoes 2.56003
2973
root -0.469048 17.2413 22.1863 -91.8659 77.6272 -91.9208
lowerback 8.96594 2.4755 10.8301
upperback 3.48218 4.50263 3.75622
thorax -0.85357 2.40548 -2.53777
lowerneck -12.0592 -1.69005 -7.74689
upperneck 37.7162 1.34551 1.00251
head 15.2067 0.225695 2.18725
rclavicle 5.64797e-014 4.51241e-014
rhumerus -28.7611 -4.10588 -82.687
rradius 33.5902
rwrist -11.0963
rhand -22.2638 13.8378
rfingers 7.12502
rthumb 4.154 -16.1015
lclavicle 5.64797e-014 4.51241e-014
lhumerus -36.0709 5.49724 82.7595
lradius 36.5195
lwrist 4.7573
lhand -18.5012 21.1739
lfingers 7.12502
lthumb 7.7866 51.0105
rfemur 2.78922 -8.19345 34.7668
rtibia 25.3303
rfoot -25.4866 -1.10311
rtoes 9.35635
lfemur -36.1037 3.61294 -6.13208
ltibia 65.3647
lfoot -12.4477 -9.02176
ltoes -1.6434
2974
root -0.408478 17.2398 22.1789 -92.1369 77.4012 -92.2306
lowerback 9.00136 2.42972 11.2624
upperback 3.48088 4.48856 3.76923
thorax -0.841607 2.40403 -2.7592
lowerneck -12.0538 -1.63605 -7.73569
upperneck 37.6505 1.38961 1.06489
head 15.1682 0.254744 2.21644
rclavicle 6.00081e-014 1.68967e-014
rhumerus -28.5004 -4.44017 -82.6979
rradius 33.3983
rwrist -10.8551
rhand -22.0367 14.0028
rfingers 7.12502
rthumb 4.37331 -15.9321
lclavicle 6.00081e-014 1.68967e-014
lhumerus -36.4167 5.74094 82.7449
lradius 36.426
lwrist 4.2523
lhand -18.7712 20.9918
lfingers 7.12502
lthumb 7.52598 50.8379
rfemur 3.11001 -8.34393 34.9327
rtibia 25.0592
rfoot -25.843 -1.33573
rtoes 7.26102
lfemur -36.645 3.85993 -6.14031
ltibia 64.2516
lfoot -13.5902 -8.14752
ltoes -7.2327
2975
root -0.345734 17.239 22.1759 -91.403 77.6095 -91.7182
lowerback 8.89698 2.55351 11.2587
upperback 3.44542 4.6254 3.58545
thorax -0.787357 2.47048 -2.95227
lowerneck -12.1853 -1.67519 -7.60103
upperneck 37.6238 1.25321 1.16229
head 15.1894 0.225311 2.21217
rclavicle 2.94201e-014 1.15295e-014
rhumerus -28.3345 -4.72944 -82.8051
rradius 33.4272
rwrist -11.1181
rhand -21.7347 14.1532
rfingers 7.12502
rthumb 4.66497 -15.7755
lclavicle 2.94201e-014 1.15295e-014
lhumerus -36.5855 5.76744 82.657
lradius 36.2058
lwrist 4.0092
lhand -19.3472 19.8925
lfingers 7.12502
lthumb 6.97005 49.7578
rfemur 3.22072 -7.89154 34.8042
rtibia 24.8588
rfoot -26.0493 -1.78869
rtoes 6.17088
lfemur -37.1882 4.09083 -6.4591
ltibia 62.9168
lfoot -14.4143 -7.48821
ltoes -7.75326
